<svg width="36" height="30" viewBox="0 0 36 30" fill="none" xmlns="http://www.w3.org/2000/svg">
<path d="M23.0914 25.1354C23.1486 25.1444 23.2055 25.1487 23.2616 25.1487C23.7549 25.1487 24.1903 24.8144 24.2741 24.3426L25.3018 18.5554C25.3951 18.03 25.0169 17.533 24.457 17.4455C23.8971 17.3576 23.3676 17.7128 23.2743 18.2383L22.2466 24.0254C22.1533 24.5509 22.5315 25.0479 23.0914 25.1354Z" fill="black"/>
<path d="M10.8733 24.3428C10.9571 24.8145 11.3925 25.1489 11.8858 25.1489C11.9419 25.1489 11.9988 25.1446 12.056 25.1356C12.6159 25.048 12.9941 24.5511 12.9008 24.0256L11.8731 18.2385C11.7798 17.713 11.2504 17.3581 10.6904 17.4456C10.1305 17.5332 9.75231 18.0301 9.84563 18.5556L10.8733 24.3428Z" fill="black"/>
<path d="M34.0512 9.71627H30.4343L22.5213 0.433052C22.1668 0.0172134 21.5201 -0.0503677 21.0768 0.282457C20.6336 0.615218 20.5617 1.22216 20.9164 1.63813L27.8022 9.71627H7.27676L14.1626 1.63813C14.5172 1.22216 14.4453 0.615154 14.0022 0.282457C13.5589 -0.0503677 12.9122 0.0171492 12.5577 0.433052L4.6446 9.71627H1.0277C0.460137 9.71627 0 10.1481 0 10.6808V14.5389C0 15.0716 0.460137 15.5034 1.0277 15.5034H2.30795L6.20582 28.3072C6.33182 28.7213 6.73509 29.0068 7.19392 29.0068H27.885C28.3439 29.0068 28.7471 28.7213 28.8732 28.3072L32.771 15.5034H34.0512C34.6188 15.5034 35.0789 15.0716 35.0789 14.5389V10.6808C35.0789 10.1481 34.6188 9.71627 34.0512 9.71627ZM27.1099 27.0777H7.96909L4.44557 15.5034H30.6334L27.1099 27.0777ZM33.0235 13.5744C29.503 13.5744 5.39065 13.5744 2.05541 13.5744V11.6453H33.0235V13.5744Z" fill="black"/>
<path d="M17.5395 25.1486C18.1071 25.1486 18.5672 24.7167 18.5672 24.184V18.3969C18.5672 17.8642 18.1071 17.4324 17.5395 17.4324C16.9719 17.4324 16.5118 17.8642 16.5118 18.3969V24.184C16.5118 24.7168 16.9719 25.1486 17.5395 25.1486Z" fill="black"/>
</svg>
