<svg width="80" height="74" viewBox="0 0 80 74" fill="none" xmlns="http://www.w3.org/2000/svg">
<path d="M79.2774 22.3922L40.696 0.671707C40.2638 0.428441 39.7363 0.428441 39.3042 0.671707L0.722612 22.3922C0.276245 22.6436 -0.000163193 23.1163 7.22867e-08 23.6286V73.0836C7.22867e-08 73.3195 0.191184 73.5107 0.426939 73.5107H8.93992C9.17567 73.5107 9.36686 73.3195 9.36686 73.0836V31.1122H70.633V73.0838C70.633 73.3197 70.8242 73.5109 71.0599 73.5109H79.5729C79.8087 73.5109 80 73.3197 80 73.0838V23.6283C80 23.1161 79.7239 22.6436 79.2774 22.3922Z" fill="black"/>
<path d="M63.9923 60.2573H53.5757C52.7922 60.2573 52.1572 60.8924 52.1572 61.6758V72.0927C52.1572 72.8763 52.7923 73.5112 53.5757 73.5112H63.9923C64.7758 73.5112 65.4109 72.8763 65.4109 72.0927V61.6758C65.4109 60.8923 64.7758 60.2573 63.9923 60.2573Z" fill="black"/>
<path d="M45.2083 60.2573H34.7917C34.0082 60.2573 33.373 60.8924 33.373 61.6758V72.0927C33.373 72.8763 34.0082 73.5112 34.7917 73.5112H45.2083C45.9918 73.5112 46.6268 72.8763 46.6268 72.0927V61.6758C46.6269 60.8923 45.9918 60.2573 45.2083 60.2573Z" fill="black"/>
<path d="M26.4245 60.2573H16.0078C15.2245 60.2573 14.5894 60.8924 14.5894 61.6758V72.0927C14.5894 72.8763 15.2246 73.5112 16.0078 73.5112H26.4245C27.2078 73.5112 27.8429 72.8763 27.8429 72.0927V61.6758C27.8429 60.8923 27.2076 60.2573 26.4245 60.2573Z" fill="black"/>
<path d="M63.9923 41.0924H53.5757C52.7922 41.0924 52.1572 41.7275 52.1572 42.5109V52.9278C52.1572 53.7112 52.7923 54.3463 53.5757 54.3463H63.9923C64.7758 54.3463 65.4109 53.7112 65.4109 52.9278V42.5109C65.4109 41.7273 64.7758 41.0924 63.9923 41.0924Z" fill="black"/>
<path d="M45.2083 41.0924H34.7917C34.0082 41.0924 33.373 41.7275 33.373 42.5109V52.9278C33.373 53.7112 34.0082 54.3463 34.7917 54.3463H45.2083C45.9918 54.3463 46.6268 53.7112 46.6268 52.9278V42.5109C46.6269 41.7273 45.9918 41.0924 45.2083 41.0924Z" fill="black"/>
<path d="M26.4245 41.0924H16.0078C15.2245 41.0924 14.5894 41.7275 14.5894 42.5109V52.9278C14.5894 53.7112 15.2246 54.3463 16.0078 54.3463H26.4245C27.2078 54.3463 27.8429 53.7112 27.8429 52.9278V42.5109C27.8429 41.7273 27.2076 41.0924 26.4245 41.0924Z" fill="black"/>
</svg>
