<svg width="72" height="80" viewBox="0 0 72 80" fill="none" xmlns="http://www.w3.org/2000/svg">
<path d="M24.8122 11.1882C24.8122 5.00948 29.8217 0 36.0013 0C42.1792 0 47.1886 5.00948 47.1886 11.1882C47.1886 17.367 42.1792 22.3765 36.0013 22.3765C29.8217 22.3765 24.8122 17.367 24.8122 11.1882ZM41.3774 29.999C41.4906 27.5631 42.3283 25.3079 43.6782 23.4431C42.7309 23.2448 41.7529 23.1396 40.7485 23.1396H31.255C30.2541 23.1396 29.2761 23.244 28.334 23.4405C29.7699 25.4325 30.6295 27.864 30.6436 30.4972C32.3874 29.5367 34.3899 28.9903 36.5179 28.9903C38.2442 28.9903 39.8871 29.3499 41.3774 29.999ZM43.2721 31.0025C46.522 33.0401 48.8009 36.4883 49.2158 40.4908C50.5412 41.1101 52.0122 41.4662 53.5718 41.4662C59.2654 41.4662 63.8802 36.8514 63.8802 31.1586C63.8802 25.465 59.2654 20.8502 53.5718 20.8502C47.9325 20.8511 43.3581 25.3834 43.2721 31.0025ZM36.5179 52.1097C42.2116 52.1097 46.8264 47.4932 46.8264 41.8004C46.8264 36.1085 42.2107 31.4928 36.5179 31.4928C30.8252 31.4928 26.2078 36.1085 26.2078 41.8004C26.2078 47.4941 30.826 52.1097 36.5179 52.1097ZM40.8906 52.8114H32.1435C24.8657 52.8114 18.9448 58.7332 18.9448 66.0101V76.708L18.972 76.8747L19.7088 77.1062C26.6542 79.2755 32.6882 80 37.6547 80C47.3553 80 52.9779 77.2352 53.3244 77.058L54.013 76.7089H54.0867V66.0101C54.0893 58.7332 48.1684 52.8114 40.8906 52.8114ZM57.9462 42.1705H49.2667C49.1728 45.6432 47.6904 48.7695 45.3457 51.0194C51.8148 52.943 56.548 58.941 56.548 66.0268V69.324C65.1179 69.0091 70.0563 66.5803 70.3817 66.418L71.0703 66.0689H71.144V55.3684C71.144 48.0914 65.2231 42.1705 57.9462 42.1705ZM18.4308 41.4662C20.4474 41.4662 22.3237 40.8785 23.9131 39.8759C24.4183 36.5804 26.185 33.7006 28.7086 31.7393C28.7191 31.5463 28.7375 31.3551 28.7375 31.1604C28.7375 25.4667 24.1219 20.8519 18.4308 20.8519C12.7363 20.8519 8.12239 25.4667 8.12239 31.1604C8.12151 36.8523 12.7363 41.4662 18.4308 41.4662ZM27.6875 51.0194C25.3543 48.7817 23.8771 45.6704 23.7692 42.2205C23.4473 42.1969 23.1289 42.1705 22.8009 42.1705H14.0546C6.77682 42.1705 0.855957 48.0914 0.855957 55.3684V66.0662L0.883149 66.232L1.61997 66.4636C7.19171 68.2039 12.1644 69.0047 16.4835 69.2582V66.0268C16.4853 58.941 21.2176 52.943 27.6875 51.0194Z" fill="black"/>
</svg>
