<svg width="80" height="54" viewBox="0 0 80 54" fill="none" xmlns="http://www.w3.org/2000/svg">
<path d="M13.7595 42.1569C10.593 41.6199 7.59314 43.7679 7.05613 46.9345C7.00057 47.2678 6.98206 47.5826 6.98206 47.8974C6.98206 51.1009 9.59305 53.7119 12.7966 53.7119C16.0187 53.6934 18.6112 51.1009 18.6112 47.8974C18.6112 47.5641 18.5927 47.2493 18.5371 46.9345C18.1297 44.4901 16.2039 42.5643 13.7595 42.1569Z" fill="black"/>
<path d="M0.574926 28.8797C0.223089 29.0278 -0.0176409 29.3982 0.000876804 29.7871V43.7679C0.000876804 43.805 0.000876804 43.842 0.000876804 43.879C0.0193945 44.379 0.426784 44.7494 0.926762 44.7308H3.77849C4.74141 41.9347 6.9265 39.7681 9.70415 38.8052C14.6854 37.1016 20.1111 39.7496 21.8147 44.7308H24.2591V26.3983H6.408L0.574926 28.8797Z" fill="black"/>
<path d="M24.2405 14.3988C24.2405 14.3988 24.2405 14.3803 24.2405 14.3618C24.222 13.8248 23.7776 13.4174 23.2591 13.4359H14.4262C14.0558 13.4359 13.704 13.6581 13.5373 13.9914L9.05603 22.6948H24.2405V14.3988Z" fill="black"/>
<path d="M66.2757 42.0642C63.424 42.0642 60.9982 44.1197 60.5353 46.9344C60.4797 47.2677 60.4612 47.5825 60.4612 47.8973C60.4612 51.1009 63.0722 53.7119 66.2757 53.7119C69.4793 53.6934 72.0903 51.1009 72.0903 47.8788C72.1088 47.5825 72.0718 47.2862 72.0348 46.9899C71.5718 44.1567 69.146 42.0827 66.2757 42.0642Z" fill="black"/>
<path d="M27.9627 29.3611H77.9605V0.28833H22.4073V9.73236H23.2777C23.2962 9.73236 23.3147 9.73236 23.3332 9.73236C25.9072 9.75088 27.9812 11.8249 27.9627 14.3988V29.3611Z" fill="black"/>
<path d="M79.0715 33.0647H27.9626V44.7308H57.2391C58.2021 41.9347 60.3871 39.7681 63.1648 38.8052C68.1461 37.1016 73.5718 39.7496 75.2754 44.7308H79.053C79.09 44.7308 79.1271 44.7308 79.1641 44.7308C79.6641 44.6938 80.0344 44.2679 79.9974 43.7864V34.1202C79.9974 33.5647 79.627 33.0647 79.0715 33.0647Z" fill="black"/>
</svg>
