<svg width="80" height="80" viewBox="0 0 80 80" fill="none" xmlns="http://www.w3.org/2000/svg">
<path d="M72.9797 33.2155L41.7784 2.00963C39.9383 0.173998 36.9615 0.195717 35.1454 2.00728C33.319 3.83838 33.319 6.81151 35.1454 8.64027L66.3513 39.8439C68.1794 41.6721 71.1515 41.6721 72.9797 39.8439C74.8129 38.0108 74.8129 35.0483 72.9797 33.2155Z" fill="black"/>
<path d="M32.8306 12.9542L32.5957 14.1314C30.9415 22.4061 26.9212 30.2672 21.4835 36.6386L38.4596 53.6148C44.8303 48.1782 52.5831 44.0499 60.8581 42.3936L62.0375 42.1588L32.8306 12.9542Z" fill="black"/>
<path d="M18.3711 40.1544L6.76908 51.7541C4.02767 54.4955 4.01626 58.9462 6.76908 61.699L13.3975 68.3274C16.1389 71.0688 20.5896 71.0801 23.3424 68.3274L34.9434 56.7265L18.3711 40.1544ZM20.0283 58.3849C19.1129 59.3004 17.6296 59.3004 16.7141 58.3849C15.7986 57.4694 15.7986 55.9862 16.7141 55.0707L20.0283 51.7565C20.9438 50.841 22.4271 50.841 23.3426 51.7565C24.258 52.6719 24.258 54.1552 23.3426 55.0707L20.0283 58.3849Z" fill="black"/>
<path d="M44.7291 69.5746L47.9174 66.3863C50.6704 63.6338 50.6613 59.1832 47.9176 56.4439L45.5494 54.0741C44.2405 54.9533 42.9905 55.9086 41.7752 56.928L44.6034 59.7604C45.5166 60.669 45.523 62.1477 44.6034 63.0722L41.3624 66.3132L36.5996 61.6986L29.9708 68.3274L40.6048 78.6317C42.4194 80.451 45.399 80.4614 47.2309 78.6293C49.0596 76.8006 49.0596 73.8274 47.2309 71.9985L44.7291 69.5746Z" fill="black"/>
<path d="M54.1976 0C52.9022 0 51.8539 1.04828 51.8539 2.34375V7.03126C51.8539 8.32673 52.9022 9.37502 54.1976 9.37502C55.4931 9.37502 56.5414 8.32673 56.5414 7.03126V2.34375C56.5414 1.04828 55.4931 0 54.1976 0Z" fill="black"/>
<path d="M72.9476 18.75H68.2601C66.9647 18.75 65.9164 19.7983 65.9164 21.0938C65.9164 22.3892 66.9647 23.4375 68.2601 23.4375H72.9476C74.2431 23.4375 75.2914 22.3892 75.2914 21.0938C75.2914 19.7983 74.2431 18.75 72.9476 18.75Z" fill="black"/>
<path d="M69.9171 5.37422C69.0016 4.45875 67.5183 4.45875 66.6029 5.37422L61.9154 10.0617C60.9999 10.9772 60.9999 12.4605 61.9154 13.376C62.8308 14.2914 64.3141 14.2916 65.2296 13.376L69.9171 8.68845C70.8326 7.77298 70.8326 6.2897 69.9171 5.37422Z" fill="black"/>
</svg>
