<svg width="80" height="80" viewBox="0 0 80 80" fill="none" xmlns="http://www.w3.org/2000/svg">
<g clip-path="url(#clip0_0_64)">
<path d="M50 21.6667C48.16 21.6667 46.6666 20.1734 46.6666 18.3334V13.3334H33.3333V18.3334C33.3333 20.1734 31.84 21.6667 30 21.6667C28.16 21.6667 26.6666 20.1734 26.6666 18.3334V13.3334C26.6666 9.65675 29.6566 6.66675 33.3333 6.66675H46.6666C50.3433 6.66675 53.3333 9.65675 53.3333 13.3334V18.3334C53.3333 20.1734 51.84 21.6667 50 21.6667Z" fill="black"/>
<path d="M42.3667 51.2667C41.7667 51.5001 40.9 51.6667 40 51.6667C39.1 51.6667 38.2333 51.5001 37.4333 51.2001L0 38.7334V64.1667C0 69.2334 4.1 73.3334 9.16667 73.3334H70.8333C75.9 73.3334 80 69.2334 80 64.1667V38.7334L42.3667 51.2667Z" fill="black"/>
<path d="M80 25.8334V33.4667L40.8 46.5334C40.5333 46.6334 40.2667 46.6667 40 46.6667C39.7333 46.6667 39.4667 46.6334 39.2 46.5334L0 33.4667V25.8334C0 20.7667 4.1 16.6667 9.16667 16.6667H70.8333C75.9 16.6667 80 20.7667 80 25.8334Z" fill="black"/>
</g>
<defs>
<clipPath id="clip0_0_64">
<rect width="80" height="80" fill="white"/>
</clipPath>
</defs>
</svg>
